<?xml version="1.0" encoding="UTF-8" standalone="no"?>
<svg
   width="20"
   height="18.308001"
   viewBox="0 0 20 18.308001"
   fill="none"
   version="1.1"
   id="svg1"
   sodipodi:docname="gerald-zandisko.svg"
   inkscape:version="1.3.1 (9b9bdc1480, 2023-11-25, custom)"
   xmlns:inkscape="http://www.inkscape.org/namespaces/inkscape"
   xmlns:sodipodi="http://sodipodi.sourceforge.net/DTD/sodipodi-0.dtd"
   xmlns="http://www.w3.org/2000/svg"
   xmlns:svg="http://www.w3.org/2000/svg">
  <sodipodi:namedview
     id="namedview1"
     pagecolor="#ffffff"
     bordercolor="#000000"
     borderopacity="0.25"
     inkscape:showpageshadow="2"
     inkscape:pageopacity="0.0"
     inkscape:pagecheckerboard="0"
     inkscape:deskcolor="#d1d1d1"
     inkscape:zoom="37.906925"
     inkscape:cx="10.011363"
     inkscape:cy="9.1540003"
     inkscape:window-width="1920"
     inkscape:window-height="916"
     inkscape:window-x="0"
     inkscape:window-y="0"
     inkscape:window-maximized="1"
     inkscape:current-layer="svg1" />
  <defs
     id="defs1" />
  <path
     style="font-size:5.81503px;font-family:'Water Brush';-inkscape-font-specification:'Water Brush';fill:#ffffff;stroke-width:0.472811"
     d="m 1.4505951,18.307793 q -0.043956,0 -0.1099087,-0.06595 Q 0.8351935,18.066016 0.4176086,17.758321 2.75e-5,17.45063 2.75e-5,16.857221 q 0,-0.307691 0.1099087,-0.637364 0.065953,-0.153827 0.1098708,-0.307691 0.021921,-0.153865 0.043956,-0.307692 l 0.087912,-0.06595 0.065953,-0.351647 0.1977827,-0.373625 q 0.087912,-0.175824 0.2197795,-0.46154 0.1318677,-0.285713 0.2856945,-0.549451 0.1318677,-0.263736 0.2417386,-0.351647 v -0.10989 l 0.1099087,0.08791 q 0.2417386,-0.395606 0.5714267,-0.681321 0.3296882,-0.263735 0.7032983,-0.527473 0,-0.153846 0.1318677,-0.175824 l -0.065953,-0.08791 0.1538646,-0.04396 1.4065962,-1.186815 0.02192,-0.06593 q 0,-0.08791 -0.02192,-0.153845 0.08791,0.02196 0.131868,0.153845 0.04396,0.131868 0.04396,0.04396 v -0.04396 l 0.06595,-0.04396 0.04396,-0.04396 q -0.02192,0 -0.04396,-0.022 -0.02192,0 -0.06595,-0.022 l 0.06595,-0.08791 0.02192,-0.04396 q 0.06595,-0.06593 0.109871,-0.06593 0.04396,0 0.02192,0.04396 0,0.04396 0.02192,0.022 l 0.197821,-0.285713 0.06592,0.08791 0.08791,-0.10989 v -0.04395 q 0.131866,-0.022 0.373605,-0.2197794 0.263735,-0.1978016 0.285694,-0.3076913 h 0.04396 l 0.703298,-0.3516511 0.373645,-0.3076913 h 0.08791 v 0.021997 q 0.241777,-0.1978015 0.527475,-0.395605 0.307691,-0.2197795 0.637364,-0.2197795 v -0.043956 l 0.109909,0.021997 q 0.02192,-0.043956 0.04396,-0.1318677 0.02192,-0.087912 0.04396,-0.1758236 l 0.06595,-0.417583 q 0,-0.043956 0.06592,-0.3296693 0.06595,-0.3076914 0.08791,-0.3296693 l 0.109909,-0.1098898 q 0.06595,0 0.06595,-0.043956 0,-0.021997 -0.04396,-0.065934 h -0.02192 q -0.04396,-0.043956 -0.04396,-0.1098898 0,-0.1318677 0.06595,-0.2637355 0.04396,-0.065934 0.04396,-0.1318677 0.02192,-0.065934 0.04396,-0.1318677 h -0.02192 q -0.06595,0 -0.06595,-0.087912 0,-0.1758236 0.131868,-0.3736252 0.109871,-0.1758236 0.109871,-0.3296731 0,-0.3076913 0.06595,-0.5934077 0.02192,-0.1538457 0.02192,-0.2857134 0.02192,-0.1538457 0.02192,-0.3076914 0,-0.1758236 -0.02192,-0.2417574 0,0.043956 -0.06595,0.087912 h 0.02192 q -0.219581,0.3955918 -0.549254,0.9450436 -0.307692,0.5494515 -0.637365,1.0989034 -0.307691,0.5274735 -0.593408,0.9230785 -0.505493,0.7032983 -1.12088,1.318684 -0.615386,0.5934081 -1.406596,0.9890132 l -0.06595,-0.021997 q -0.109909,0.087912 -0.241739,0.1098898 -0.109908,0.021997 -0.219779,0.021997 -0.505493,0 -0.7252763,-0.417583 Q 3.2527827,8.395684 3.2527827,7.9341444 q 0,-0.3736252 0.043956,-0.7692322 0.06595,-0.3956055 0.2197764,-0.7692326 L 3.5824301,6.2198557 Q 3.6043513,6.1978588 3.6043513,6.06601 3.71426,6.0000762 3.780175,5.8242525 3.8680868,5.626451 3.8680868,5.4945832 3.9779576,5.4286494 3.9999545,5.2748037 L 4.0878665,5.142936 q 0.04396,-0.065934 0.153864,-0.065934 0,-0.1758236 0.04396,-0.3296693 0.06595,-0.1538456 0.241777,-0.1538456 V 4.4835974 l 0.109908,-0.1538457 -0.08791,-0.4395613 q 0.06595,-0.087912 0.197782,-0.2637354 0.131868,-0.1978016 0.175824,-0.3076914 -0.06595,-0.065934 -0.06595,-0.1538456 0,-0.1978016 0.263735,-0.4615393 L 5.2307195,2.593489 q 0.153865,-0.1538457 0.153865,-0.3296693 l 0.175824,-0.021997 Q 5.5823285,2.109955 5.7362315,2.109955 h 0.04396 q 0.08791,-0.2197795 0.153865,-0.3296693 0.08791,-0.1098898 0.175823,-0.1758236 0.06595,-0.065934 0.109909,-0.087912 l 0.08791,-0.065934 q 0.153864,-0.1098898 0.219779,-0.1978016 0.06595,-0.087912 0.175824,-0.26373544 0.04396,-0.0879118 0.08791,-0.15384567 0.04396,-0.0659339 0.08791,-0.13186771 0.329688,-0.30769135 0.879121,-0.43956133 0.549453,-0.13186772 0.989016,-0.13186772 0.417581,0 0.945056,0.15384567 0.5494515,0.15384567 0.7912105,0.57142942 0.241776,0.43956168 0.439562,0.85714468 0.219779,0.4175835 0.219779,0.945057 0,0.043956 0,0.1098897 0,0.065934 -0.02192,0.1098898 -0.02192,0.065934 -0.02192,0.1318677 0,0.065934 0,0.1098898 0,0.043956 0,0.1098897 0,0.065934 0.02192,0.1318678 0.02192,0.065934 0.02192,0.1318677 0,0.065934 0,0.1098897 0,0.087912 -0.109908,0.3516511 -0.109909,0.2417575 -0.241777,0.4835176 -0.131868,0.2197795 -0.241738,0.2197795 -0.06595,0 -0.08791,-0.065934 -0.02192,-0.065934 -0.02192,-0.087912 0,-0.1098897 0,-0.2197795 0.02192,-0.1098897 0.04396,-0.2197795 0.02192,-0.1098898 0.04396,-0.2197795 0.02192,-0.1098898 0.04396,-0.2197796 0.06595,-0.2417575 0.109909,-0.4835172 0.04396,-0.2637354 0.04396,-0.5054951 0,-0.1538457 -0.02192,-0.3516473 -0.02192,-0.1978015 -0.08791,-0.3076914 -0.04396,-0.087912 -0.08791,-0.1538456 -0.04396,-0.065934 -0.08791,-0.1318677 Q 10.395751,1.6264515 10.32984,1.5605176 10.26389,1.4945838 10.219931,1.406672 10.000152,1.1209586 9.6924575,1.1209586 q -0.153827,0 -0.285732,0.065934 l -0.06595,0.043956 q -0.109871,0 -0.197783,0.021997 -0.06595,0 -0.175824,0.065934 l -0.131867,0.065934 -0.131868,0.087912 q -1.406593,0.9230789 -2.461542,2.3296746 -1.054946,1.4065962 -1.736266,2.9450608 -0.153827,0.3516473 -0.329688,0.7692326 -0.153865,0.395605 -0.153865,0.7692321 0,0.1758236 0.06595,0.351651 l 0.02192,0.021997 q 0.02192,0.021997 0.08791,0.021997 0.153865,0 0.373644,-0.1758236 0.21978,-0.1758236 0.439559,-0.395605 0.21978,-0.2197796 0.373644,-0.3296731 0.153827,-0.1538457 0.285695,-0.1758236 0.175824,-0.3076914 0.417585,-0.5494519 0.109908,-0.1098898 0.219779,-0.2197795 0.109909,-0.1318677 0.197821,-0.2417575 0.527474,-0.6813199 1.098905,-1.4945084 0.593409,-0.8131888 0.879122,-1.4505524 0.04396,-0.1098898 0.08791,-0.2417575 0.04396,-0.1318677 0.06595,-0.2417575 0.02192,-0.1978016 0.285733,-0.4175829 l 0.329688,-0.065934 q 0.19782,0.065934 0.373644,0.065934 0.109871,0 0.175824,-0.021997 h 0.175823 q 0.2417775,0 0.2857335,0.2417578 0.06595,0.2417575 0.08791,0.4175834 0,0.065934 0.02192,0.087912 l 0.02192,0.065934 q 0.02192,0.087912 0,0.1538457 0.02192,0.1098897 0.02192,0.1978015 0.02192,0.065934 0.02192,0.1098898 0,0.3736252 -0.08791,0.6373637 -0.109909,0.329673 -0.109909,0.637364 0,0.2417575 -0.131868,0.4835176 -0.1318675,0.2197795 -0.1318675,0.5054956 0,0.2197795 -0.153865,0.2197795 h -0.02192 q -0.04396,0 -0.06595,0.021997 0,0.043956 0.04396,0.087912 0.02192,0.043956 0.02192,0.1318677 0,0.021997 -0.04396,0.1318677 -0.02192,0.087912 -0.04396,0.1318677 -0.02192,0.087912 -0.175823,0.087912 -0.08791,0.021997 -0.153865,0.043956 -0.06595,0 -0.109909,0 h -0.02192 q 0,0.043956 0.06595,0.021997 0.02192,-0.021997 0.109909,-0.021997 0.04396,0 0.153864,0.021997 0.109871,0 0.109871,0.087912 0,0.065934 -0.08791,0.2857134 -0.08791,0.1978016 -0.19782,0.417583 -0.08791,0.2197795 -0.131868,0.3296731 l 0.08791,0.1098897 -0.04396,0.043956 q 0,0.021997 -0.02192,0.043956 l -0.08791,0.087912 q 0.527475,0.1098898 0.79121,0.3516473 0.2637355,0.2197795 0.2637355,0.8351664 0,0.2417574 -0.08791,0.3076914 -0.06595,0.04396 -0.109909,0.153846 -0.02192,0.04396 -0.087911,0.109889 -0.04396,0.06593 -0.08791,0.06593 -0.08791,0 -0.08791,-0.06593 v -0.022 h -0.06595 l 0.13185,-0.3516481 q 0.02192,-0.065934 0.04396,-0.1318677 0.02192,-0.065934 0.02192,-0.1318677 0,-0.2417575 -0.373644,-0.3736252 Q 9.186658,9.1869615 8.944916,9.1430056 8.593269,9.978172 8.131728,10.791361 7.692165,11.604549 7.252602,12.395759 7.098738,12.681473 6.922914,12.967189 6.76905,13.252902 6.593226,13.560597 6.241579,14.154005 5.86795,14.681478 5.582217,15.099062 5.208607,15.538624 4.85696,15.956209 4.549265,16.395768 4.263533,16.835331 3.9119006,17.055111 3.5822124,17.27489 3.2086017,17.450718 q -0.373644,0.197782 -0.813188,0.549449 -0.2197795,0 -0.4395628,0.153864 -0.1978205,0.153865 -0.4395591,0.109909 -0.043956,0.04396 -0.065953,0.04396 z m 2.8571454,-12.8571702 0.04396,-0.021997 -0.06595,-0.065934 -0.04396,0.087912 z M 0.9670763,17.494605 q 0.087912,-0.02192 0.1758236,-0.04396 0.065953,0 0.1099087,0 0.065915,-0.04396 0.1318677,-0.109909 0.065953,-0.04396 0.1538646,-0.08791 l 0.3296882,-0.197782 q 0.1758236,-0.109909 0.3296882,-0.21978 0.1538645,-0.109909 0.2637354,-0.21978 0.043956,-0.04396 0.087912,-0.08791 0.043956,-0.04396 0.087912,-0.08791 0.043956,-0.06592 0.1099087,-0.131868 0.043956,-0.06595 0.087912,-0.109909 0.043956,-0.06595 0.1099087,-0.131867 0.043956,-0.06595 0.087912,-0.109909 0.043956,-0.06595 0.1099086,-0.131868 0.043956,-0.06595 0.087912,-0.109908 l 0.1318678,-0.06591 v 0.02192 Q 3.4727151,15.538477 3.6045451,15.40661 3.7364128,15.274742 3.8682805,15.18683 l -0.021921,-0.02192 0.395603,-0.373625 v 0.131867 q 0.04396,-0.04396 0.06591,-0.06593 0.02192,-0.022 0.04396,-0.04396 l 0.131867,-0.307696 -0.02192,-0.022 -0.06592,0.06593 h -0.08791 v -0.08791 q 0.263736,-0.351648 0.615387,-0.769233 0.351647,-0.395605 0.637364,-0.813188 0.285733,-0.417584 0.307692,-0.791211 l 0.351647,-0.351651 h 0.02192 l 0.439566,-0.747253 -0.065915,-0.153845 0.703298,-0.879123 q 0.02192,-0.1538457 0.175824,-0.3296693 0.131868,-0.1758236 0.131868,-0.3516473 0,-0.065934 -0.04396,-0.065934 -0.21978,0 -0.769232,0.395605 -0.08791,0.043956 -0.197783,0.1098898 -0.109909,0.065934 -0.21978,0.1538457 -0.219779,0.1538451 -0.417581,0.1978011 l -0.989015,0.769233 h -0.02192 l -1.7582418,1.450552 q -0.1538646,0.153846 -0.395607,0.505496 -0.2417386,0.351647 -0.3516472,0.637364 l -0.087912,-0.08791 q 0.021921,0.022 -0.1099087,0.241757 -0.043956,0.10989 -0.087912,0.175824 -0.043956,0.08791 -0.065953,0.131868 v 0.04396 q 0,0.022 -0.021921,0.06593 -0.021921,0.04396 -0.087912,0.022 l -0.021921,-0.022 -0.5494488,0.857145 H 1.362993 l -0.021921,-0.022 q -0.021921,0.04396 -0.021921,0.10989 0,0.06595 -0.021921,0.109909 0,0.109908 -0.087912,0.175823 l -0.4175811,1.032968 q 0,0.08791 0,0.153864 -0.021921,0.08791 -0.043956,0.175824 -0.043956,0.175824 -0.043956,0.307691 0,0.395603 0.2637354,0.593409 z M 16.483553,9.7363459 q -0.06595,0 -0.153827,-0.043956 0.04395,-0.1978016 0.06591,-0.3736252 0.04396,-0.1538457 0.04396,-0.2857134 0,-0.3736252 -0.153826,-0.659342 -0.153864,-0.2857133 -0.549452,-0.2857133 -0.21978,0 -0.439563,0.021997 -0.197782,0 -0.417581,0.021997 -0.219779,0.021997 -0.439563,0.043956 -0.197782,0 -0.417585,-0.021997 -0.197782,0.1098898 -0.725276,0.1758236 -0.505493,0.043956 -1.054945,0.065934 -0.549453,0 -0.9011,0 -0.131868,0.1318677 -0.483519,0.395605 -0.351647,0.2637355 -0.527475,0.3076914 V 8.9890902 q 0,-0.1098897 0.285733,-0.3516472 0.263735,-0.2417575 0.351647,-0.3296693 -0.109909,-0.1098898 -0.109909,-0.2857134 0,-0.6813203 0.483519,-0.9670352 0.505493,-0.2857134 1.098901,-0.3736252 0.06592,-0.087912 0.285733,-0.3296693 0.241738,-0.2417575 0.527471,-0.5274735 0.285732,-0.3076914 0.483518,-0.5274739 0.153865,-0.1538457 0.395607,-0.3956051 0.263736,-0.2637354 0.483515,-0.4615393 0.241777,-0.2197795 0.285732,-0.2197795 0.08791,0 0.109909,0.021997 0.02192,0.021959 0.04396,0.021959 0.04396,0 0.06595,-0.087912 l 0.06592,-0.1758236 q 0.04396,-0.065934 0.06595,-0.2197795 0.04396,-0.1318678 0.131867,-0.1318678 0.04396,0 0.08791,0.043956 0.02192,0 0.02192,-0.021997 0,0 0,0 0,-0.021997 0.02192,-0.043956 0,-0.065934 0.06595,-0.1318677 0.04396,-0.043956 0.131868,-0.1318677 0.109909,-0.1098898 0.21978,-0.2417575 0.10987,-0.1318677 0.219779,-0.2417575 0.109871,-0.1318677 0.197821,-0.2197795 l -0.04396,0.021997 q -0.241777,0.1098898 -0.461541,0.1978016 -0.21978,0.087912 -0.461541,0.087912 h -0.285694 q -0.08791,0.021997 -0.153865,0.021997 -0.06595,0 -0.153865,0 h -0.153818 q -0.06595,0 -0.153865,0 -0.08791,-0.021997 -0.08791,-0.1098897 v -0.043956 q -0.109909,0 -0.175824,0.065934 -0.06595,0.065934 -0.153865,0.065934 -0.10987,0 -0.10987,-0.065934 0,-0.021997 0.02192,-0.043956 0.02192,-0.021959 0.02192,-0.065934 v -0.021997 q -0.04396,0.021997 -0.109871,0.043956 -0.04396,0.021997 -0.08791,0.043956 -0.08791,0.065934 -0.241738,0.065934 -0.439563,-0.065934 -0.659343,-0.3516473 -0.19782,-0.2857133 -0.263735,-0.6813199 -0.04396,-0.4175834 -0.04396,-0.7912105 0,-0.13186771 0,-0.19780156 0.02192,-0.0659339 0.109908,-0.17582363 0.131868,0.68131999 0.681321,0.85714429 0.549449,0.1538457 1.164835,0.1538457 h 1.406597 q 0.351647,0 0.68132,0.021997 0.351647,0 0.703298,0 h 0.04396 Q 17.912061,1.3847192 18.219752,0.98911189 18.527443,0.5715289 18.879094,0.285814 19.230741,1.0028229e-4 19.868104,1.0028229e-4 q 0.131868,0 0.131868,0.0879117977 0,0.10988977 -0.285731,0.39560504 -0.285696,0.26373544 -0.615387,0.52747388 -0.307691,0.2417575 -0.439559,0.3076914 -0.131868,0.1098897 -0.263735,0.2197795 -0.109909,0.087912 -0.263736,0.1978016 -0.175823,0.1098897 -0.285694,0.2857134 -0.08791,0.1538456 -0.285733,0.3076913 -0.02192,0.021997 -0.08791,0.021997 -0.04396,0 -0.06592,-0.021997 h -0.08791 q -0.10991,0 -0.175824,0.1318677 -0.04396,0.1098898 -0.08791,0.2637355 -0.02192,0.021997 -0.04396,0.087912 -0.02192,0.065934 -0.04396,0.1758236 -0.06595,0.1978016 -0.175824,0.1978016 h -0.06595 l -0.02188,-0.021997 q -0.06591,0 -0.153827,0.1318677 -0.06595,0.1098898 -0.153865,0.2637355 l -0.175823,0.2857134 q -0.06595,0.087912 -0.109909,0.1538456 -0.04396,0.065934 -0.08791,0.1098898 -0.02192,0.021997 -0.109871,0.065934 l -0.153864,0.065934 q -0.04396,0.043956 -0.109909,0.043956 -0.04396,0 -0.06592,-0.021997 -0.02192,-0.021959 -0.08791,-0.021959 -0.02192,0 -0.02192,0.043956 0,0.043956 -0.02192,0.065934 v 0.087912 q 0,0.1098898 -0.04396,0.2197795 -0.04396,0.087912 -0.175824,0.087912 -0.06592,0 -0.06592,0.1318678 l -0.02192,0.021959 q 0,0.021997 -0.02192,0.043956 -0.08791,0.087912 -0.153865,0.1758236 -0.06595,0.065934 -0.153864,0.1318678 L 14.48374,5.5604906 q -0.175824,0.1758236 -0.373607,0.351651 -0.175823,0.1538457 -0.351647,0.3296693 -0.175824,0.1758237 -0.373644,0.3516473 -0.197821,0.1758236 -0.373644,0.3516472 0.373644,0 0.725276,0.043956 0.373644,0.021997 0.703298,0.2637355 l 0.725286,-0.109891 v 0.065934 l 0.879121,0.1098897 q 0.285733,0.1758236 0.549453,0.2637355 0.307691,0.087912 0.527475,0.3296693 v 0.7032982 q 0,0.1098898 -0.109909,0.3956051 -0.08791,0.2637354 -0.241739,0.4835176 -0.131867,0.2417575 -0.285694,0.2417575 z"
     id="text1"
     aria-label="gz" />
</svg>
