<?xml version="1.0" encoding="UTF-8" standalone="no"?>

<svg
   width="20"
   height="21.259001"
   viewBox="0 0 5.2916665 5.6247773"
   version="1.1"
   id="svg1"
   inkscape:version="1.3.2 (091e20ef0f, 2023-11-25)"
   sodipodi:docname="pitchbook.svg"
   xmlns:inkscape="http://www.inkscape.org/namespaces/inkscape"
   xmlns:sodipodi="http://sodipodi.sourceforge.net/DTD/sodipodi-0.dtd"
   xmlns="http://www.w3.org/2000/svg"
   xmlns:svg="http://www.w3.org/2000/svg">
  <sodipodi:namedview
     id="namedview1"
     pagecolor="#ffffff"
     bordercolor="#000000"
     borderopacity="0.25"
     inkscape:showpageshadow="2"
     inkscape:pageopacity="0.0"
     inkscape:pagecheckerboard="0"
     inkscape:deskcolor="#d1d1d1"
     inkscape:document-units="mm"
     inkscape:zoom="11.655781"
     inkscape:cx="2.8741103"
     inkscape:cy="-2.9170075"
     inkscape:window-width="1920"
     inkscape:window-height="1011"
     inkscape:window-x="0"
     inkscape:window-y="0"
     inkscape:window-maximized="1"
     inkscape:current-layer="layer1" />
  <defs
     id="defs1" />
  <g
     inkscape:label="Layer 1"
     inkscape:groupmode="layer"
     id="layer1">
    <g
       id="g2"
       transform="matrix(0.18749028,0,0,0.18749028,-1.7151068e-4,5.3193644e-5)"
       style="fill:#ffffff">
      <path
         d="M 22.2507,0 C 4.91619,1.41042 -2.2415,15.7751 0.609525,24.8062 2.28081,22.23 5.39189,19.425 11.7536,18.3863 11.3857,10.7783 14.1384,5.47014 22.2507,0 Z"
         fill="#1d5080"
         id="path10"
         style="fill:#ffffff" />
      <path
         d="M 13.3637,19.4789 C 8.98413,20.1968 5.93648,21.3848 4.02734,23.186 4.0852,25.5935 4.77423,27.9434 6.02528,29.9998 7.50629,26.3817 12.3679,23.8213 19.7571,23.8022 17.959,15.1301 21.9771,7.18535 28.2246,1.85181 25.1324,2.30981 22.103,3.12199 19.1958,4.27239 14.4388,8.85625 12.666,14.7648 13.3637,19.4789 Z"
         fill="#1d5080"
         id="path11"
         style="fill:#ffffff" />
    </g>
  </g>
</svg>
