<?xml version="1.0" standalone="no"?>
<!DOCTYPE svg PUBLIC "-//W3C//DTD SVG 20010904//EN"
 "http://www.w3.org/TR/2001/REC-SVG-20010904/DTD/svg10.dtd">
<svg version="1.0" xmlns="http://www.w3.org/2000/svg"
 width="2048.000000pt" height="2048.000000pt" viewBox="0 0 2048.000000 2048.000000"
 preserveAspectRatio="xMidYMid meet">
<metadata>
Created by potrace 1.14, written by Peter Selinger 2001-2017
</metadata>
<g transform="translate(0.000000,2048.000000) scale(0.100000,-0.100000)"
fill="#000000" stroke="none">
<path d="M0 10240 l0 -10240 10240 0 10240 0 0 10240 0 10240 -10240 0 -10240
0 0 -10240z m12613 2294 c1302 -2605 2367 -4737 2365 -4739 -6 -5 -394 182
-548 265 -1707 916 -3025 2359 -3777 4135 -33 77 -138 344 -234 592 -96 249
-176 453 -179 453 -3 0 -83 -204 -179 -453 -96 -248 -201 -515 -234 -592 -823
-1942 -2332 -3493 -4254 -4371 -40 -18 -73 -31 -73 -28 0 9 4735 9474 4740
9474 3 0 1071 -2131 2373 -4736z m-2309 -1211 c32 -65 94 -183 138 -263 866
-1560 2179 -2837 3758 -3654 l162 -83 -174 -91 c-660 -343 -1249 -747 -1823
-1251 -169 -149 -542 -518 -708 -701 -542 -598 -998 -1258 -1360 -1967 -29
-57 -54 -103 -57 -103 -3 0 -28 46 -57 103 -335 656 -754 1273 -1262 1857
-170 196 -639 666 -834 835 -568 494 -1151 893 -1794 1227 l-175 91 162 83
c1203 623 2262 1520 3080 2609 305 407 593 866 798 1272 42 84 79 153 82 153
3 0 32 -53 64 -117z"/>
</g>
</svg>
